<?xml version="1.0" encoding="UTF-8" ?>
<svg version="1.1" width="256" height="256" xmlns="http://www.w3.org/2000/svg" shape-rendering="crispEdges">
<rect x="0" y="0" width="256" height="16" fill="#33272A" />
<rect x="0" y="16" width="48" height="32" fill="#594D4D" />
<rect x="48" y="16" width="16" height="48" fill="#33272A" />
<rect x="64" y="16" width="64" height="32" fill="#594D4D" />
<rect x="128" y="16" width="16" height="48" fill="#33272A" />
<rect x="144" y="16" width="64" height="32" fill="#594D4D" />
<rect x="208" y="16" width="16" height="48" fill="#33272A" />
<rect x="224" y="16" width="32" height="32" fill="#594D4D" />
<rect x="0" y="48" width="48" height="16" fill="#33272A" />
<rect x="64" y="48" width="64" height="16" fill="#33272A" />
<rect x="144" y="48" width="64" height="16" fill="#33272A" />
<rect x="224" y="48" width="32" height="16" fill="#33272A" />
<rect x="0" y="64" width="16" height="32" fill="#594D4D" />
<rect x="16" y="64" width="16" height="48" fill="#33272A" />
<rect x="32" y="64" width="64" height="32" fill="#594D4D" />
<rect x="96" y="64" width="16" height="48" fill="#33272A" />
<rect x="112" y="64" width="80" height="32" fill="#594D4D" />
<rect x="192" y="64" width="16" height="48" fill="#33272A" />
<rect x="208" y="64" width="48" height="32" fill="#594D4D" />
<rect x="0" y="96" width="16" height="16" fill="#33272A" />
<rect x="32" y="96" width="64" height="16" fill="#33272A" />
<rect x="112" y="96" width="80" height="16" fill="#33272A" />
<rect x="208" y="96" width="48" height="16" fill="#33272A" />
<rect x="0" y="112" width="64" height="32" fill="#594D4D" />
<rect x="64" y="112" width="16" height="48" fill="#33272A" />
<rect x="80" y="112" width="64" height="32" fill="#594D4D" />
<rect x="144" y="112" width="16" height="48" fill="#33272A" />
<rect x="160" y="112" width="48" height="32" fill="#594D4D" />
<rect x="208" y="112" width="16" height="48" fill="#33272A" />
<rect x="224" y="112" width="32" height="32" fill="#594D4D" />
<rect x="0" y="144" width="64" height="16" fill="#33272A" />
<rect x="80" y="144" width="64" height="16" fill="#33272A" />
<rect x="160" y="144" width="48" height="16" fill="#33272A" />
<rect x="224" y="144" width="32" height="16" fill="#33272A" />
<rect x="0" y="160" width="48" height="32" fill="#594D4D" />
<rect x="48" y="160" width="16" height="48" fill="#33272A" />
<rect x="64" y="160" width="48" height="32" fill="#594D4D" />
<rect x="112" y="160" width="16" height="48" fill="#33272A" />
<rect x="128" y="160" width="64" height="32" fill="#594D4D" />
<rect x="192" y="160" width="16" height="48" fill="#33272A" />
<rect x="208" y="160" width="32" height="32" fill="#594D4D" />
<rect x="240" y="160" width="16" height="48" fill="#33272A" />
<rect x="0" y="192" width="48" height="16" fill="#33272A" />
<rect x="64" y="192" width="48" height="16" fill="#33272A" />
<rect x="128" y="192" width="64" height="16" fill="#33272A" />
<rect x="208" y="192" width="32" height="16" fill="#33272A" />
<rect x="0" y="208" width="16" height="48" fill="#33272A" />
<rect x="16" y="208" width="64" height="32" fill="#594D4D" />
<rect x="80" y="208" width="16" height="48" fill="#33272A" />
<rect x="96" y="208" width="64" height="32" fill="#594D4D" />
<rect x="160" y="208" width="16" height="48" fill="#33272A" />
<rect x="176" y="208" width="80" height="32" fill="#594D4D" />
<rect x="16" y="240" width="64" height="16" fill="#33272A" />
<rect x="96" y="240" width="64" height="16" fill="#33272A" />
<rect x="176" y="240" width="80" height="16" fill="#33272A" />
</svg>